<svg width="50" height="50" viewBox="0 0 50 50" fill="none" xmlns="http://www.w3.org/2000/svg">
<circle cx="25" cy="25" r="25" fill="black"/>
<circle cx="29" cy="13" r="4" fill="white"/>
<line x1="22.0204" y1="31.2247" x2="16.2249" y2="32.7777" stroke="#ffffff" stroke-width="2" stroke-linecap="round"/>
<line x1="23.2598" y1="27.2247" x2="22.2246" y2="31.0884" stroke="#ffffff" stroke-width="2" stroke-linecap="round"/>
<line x1="24.4142" y1="28" x2="27.2426" y2="30.8284" stroke="#ffffff" stroke-width="2" stroke-linecap="round"/>
<line x1="27.2247" y1="31.7071" x2="28.7777" y2="37.5027" stroke="#ffffff" stroke-width="2" stroke-linecap="round"/>
<line x1="30.634" y1="22.8303" x2="28.634" y2="19.3662" stroke="#ffffff" stroke-width="2" stroke-linecap="round"/>
<line x1="31" y1="22.828" x2="33.8284" y2="19.9995" stroke="#ffffff" stroke-width="2" stroke-linecap="round"/>
<line x1="21.2247" y1="17.2929" x2="25.0884" y2="18.3282" stroke="#ffffff" stroke-width="2" stroke-linecap="round"/>
<line x1="18.634" y1="20.8303" x2="20.634" y2="17.3662" stroke="#ffffff" stroke-width="2" stroke-linecap="round"/>
<path d="M24.3542 17.9788C24.4943 17.442 25.0447 17.1218 25.5806 17.2654L29.255 18.2499C29.8548 18.4107 30.1647 19.0735 29.9033 19.6368L26.3683 27.2552C26.1665 27.6903 25.6841 27.9208 25.2188 27.8045L22.9803 27.245C22.4405 27.1101 22.1147 26.5606 22.2551 26.0223L24.3542 17.9788Z" fill="#ffffff"/>
</svg>
