<svg width="50" height="50" viewBox="0 0 50 50" fill="none" xmlns="http://www.w3.org/2000/svg">
<circle cx="25" cy="25" r="25" fill="black"/>
<path d="M24 41V9H26V41H24ZM30.7317 18.6C30.5854 17.3333 29.9919 16.35 28.9512 15.65C27.9106 14.95 26.6341 14.6 25.122 14.6C24.0163 14.6 23.0488 14.7833 22.2195 15.15C21.3984 15.5167 20.7561 16.0208 20.2927 16.6625C19.8374 17.3042 19.6098 18.0333 19.6098 18.85C19.6098 19.5333 19.7683 20.1208 20.0854 20.6125C20.4106 21.0958 20.8252 21.5 21.3293 21.825C21.8333 22.1417 22.3618 22.4042 22.9146 22.6125C23.4675 22.8125 23.9756 22.975 24.439 23.1L26.9756 23.8C27.626 23.975 28.3496 24.2167 29.1463 24.525C29.9512 24.8333 30.7195 25.2542 31.4512 25.7875C32.1911 26.3125 32.8008 26.9875 33.2805 27.8125C33.7602 28.6375 34 29.65 34 30.85C34 32.2333 33.6463 33.4833 32.939 34.6C32.2398 35.7167 31.2154 36.6042 29.8659 37.2625C28.5244 37.9208 26.8943 38.25 24.9756 38.25C23.187 38.25 21.6382 37.9542 20.3293 37.3625C19.0285 36.7708 18.0041 35.9458 17.2561 34.8875C16.5163 33.8292 16.0976 32.6 16 31.2H19.122C19.2033 32.1667 19.5203 32.9667 20.0732 33.6C20.6341 34.225 21.3415 34.6917 22.1951 35C23.0569 35.3 23.9837 35.45 24.9756 35.45C26.1301 35.45 27.1667 35.2583 28.0854 34.875C29.0041 34.4833 29.7317 33.9417 30.2683 33.25C30.8049 32.55 31.0732 31.7333 31.0732 30.8C31.0732 29.95 30.8415 29.2583 30.378 28.725C29.9146 28.1917 29.3049 27.7583 28.5488 27.425C27.7927 27.0917 26.9756 26.8 26.0976 26.55L23.0244 25.65C21.0732 25.075 19.5285 24.2542 18.3902 23.1875C17.252 22.1208 16.6829 20.725 16.6829 19C16.6829 17.5667 17.061 16.3167 17.8171 15.25C18.5813 14.175 19.6057 13.3417 20.8902 12.75C22.1829 12.15 23.626 11.85 25.2195 11.85C26.8293 11.85 28.2602 12.1458 29.5122 12.7375C30.7642 13.3208 31.7561 14.1208 32.4878 15.1375C33.2276 16.1542 33.6179 17.3083 33.6585 18.6H30.7317Z" fill="white"/>
</svg>
