<svg width="50" height="50" viewBox="0 0 50 50" fill="none" xmlns="http://www.w3.org/2000/svg">
<circle cx="25" cy="25" r="25" fill="black"/>
<rect x="16" y="21" width="18" height="2" fill="#ffffff"/>
<mask id="path-3-inside-1_24_143" fill="white">
<rect x="14" y="20" width="22" height="14" rx="1"/>
</mask>
<rect x="14" y="20" width="22" height="14" rx="1" stroke="#ffffff" stroke-width="4" mask="url(#path-3-inside-1_24_143)"/>
<path fill-rule="evenodd" clip-rule="evenodd" d="M29 17H21C21 15.8955 20.3281 15 19.5 15C18.6719 15 18 15.8955 18 17H15C14.4473 17 14 17.4473 14 18C14 18.5527 14.4473 19 15 19H19.5H30.5H35C35.1084 19 35.2129 18.9824 35.3105 18.9502C35.7109 18.8203 36 18.4443 36 18C36 17.4473 35.5527 17 35 17H32C32 15.8955 31.3281 15 30.5 15C29.9248 15 29.4248 15.4316 29.1729 16.0654C29.0625 16.3447 29 16.6631 29 17ZM30 16H31V18H30V16ZM20 16H19V18H20V16Z" fill="#ffffff"/>
<path fill-rule="evenodd" clip-rule="evenodd" d="M23.9705 29.6052L27.9781 25.5975L27.3806 25L23.9122 28.4684L22.5352 27.0914L22 27.6265L23.377 29.0036L23.3729 29.0077L23.9705 29.6052Z" fill="#ffffff"/>
</svg>
